<svg width="100" height="100" viewBox="0 0 100 100" fill="none" xmlns="http://www.w3.org/2000/svg">
<rect width="100" height="100" fill="#F9F9F9"/>
<path d="M20.495 72.653C21.053 73.493 21.992 74 23 74H68C69.2 74 70.286 73.286 70.757 72.182L79.757 51.182C79.9542 50.7258 80.0347 50.2277 79.9914 49.7326C79.948 49.2375 79.782 48.761 79.5085 48.3461C79.2349 47.9311 78.8624 47.5908 78.4245 47.3558C77.9865 47.1208 77.497 46.9985 77 47H74V38C74 34.691 71.309 32 68 32H48.035L40.367 26H26C22.691 26 20 28.691 20 32V71H20.021C20.0143 71.5854 20.1791 72.1601 20.495 72.653ZM68 38V47H32C30.8 47 29.714 47.714 29.243 48.818L26 56.387V38H68Z" fill="#2B2B2B"/>
</svg>
