<svg width="100" height="100" viewBox="0 0 100 100" fill="none" xmlns="http://www.w3.org/2000/svg">
<rect width="100" height="100" fill="#F9F9F9"/>
<path d="M30.5 59C33.23 59 35.699 57.926 37.571 56.21L56.351 66.941C56.1286 67.7762 56.0107 68.6358 56 69.5C56 75.29 60.71 80 66.5 80C72.29 80 77 75.29 77 69.5C77 63.71 72.29 59 66.5 59C63.77 59 61.301 60.074 59.429 61.79L40.649 51.059C40.838 50.318 40.958 49.553 40.973 48.755L59.426 38.21C61.301 39.926 63.77 41 66.5 41C72.29 41 77 36.29 77 30.5C77 24.71 72.29 20 66.5 20C60.71 20 56 24.71 56 30.5C56 31.388 56.144 32.234 56.351 33.059L39.299 42.806C38.3502 41.334 37.0479 40.123 35.511 39.2835C33.974 38.444 32.2513 38.0028 30.5 38C24.71 38 20 42.71 20 48.5C20 54.29 24.71 59 30.5 59ZM66.5 65C68.981 65 71 67.019 71 69.5C71 71.981 68.981 74 66.5 74C64.019 74 62 71.981 62 69.5C62 67.019 64.019 65 66.5 65ZM66.5 26C68.981 26 71 28.019 71 30.5C71 32.981 68.981 35 66.5 35C64.019 35 62 32.981 62 30.5C62 28.019 64.019 26 66.5 26ZM30.5 44C32.981 44 35 46.019 35 48.5C35 50.981 32.981 53 30.5 53C28.019 53 26 50.981 26 48.5C26 46.019 28.019 44 30.5 44Z" fill="#2B2B2B"/>
</svg>
