<svg width="100" height="100" viewBox="0 0 100 100" fill="none" xmlns="http://www.w3.org/2000/svg">
<rect width="100" height="100" fill="#F9F9F9"/>
<path d="M71 54.758V44C71 34.349 64.445 26.219 55.565 23.774C54.686 21.56 52.538 20 50 20C47.462 20 45.314 21.56 44.435 23.774C35.555 26.222 29 34.349 29 44V54.758L23.879 59.879C23.5999 60.1571 23.3785 60.4877 23.2277 60.8517C23.0768 61.2157 22.9994 61.606 23 62V68C23 68.7957 23.3161 69.5587 23.8787 70.1213C24.4413 70.6839 25.2044 71 26 71H74C74.7957 71 75.5587 70.6839 76.1213 70.1213C76.6839 69.5587 77 68.7957 77 68V62C77.0006 61.606 76.9232 61.2157 76.7724 60.8517C76.6215 60.4877 76.4001 60.1571 76.121 59.879L71 54.758ZM71 65H29V63.242L34.121 58.121C34.4001 57.8429 34.6215 57.5123 34.7724 57.1483C34.9232 56.7843 35.0006 56.394 35 56V44C35 35.729 41.729 29 50 29C58.271 29 65 35.729 65 44V56C65 56.798 65.315 57.56 65.879 58.121L71 63.242V65ZM50 80C51.8579 80.0023 53.6704 79.4258 55.1855 78.3505C56.7006 77.2752 57.843 75.7546 58.454 74H41.546C42.157 75.7546 43.2994 77.2752 44.8145 78.3505C46.3296 79.4258 48.1421 80.0023 50 80Z" fill="#2B2B2B"/>
</svg>
