<svg width="24" height="24" viewBox="0 0 24 24" fill="none" xmlns="http://www.w3.org/2000/svg">
<path d="M4.44397 15.9999H1.99597V8.12795H4.19197C5.23197 8.12795 5.98397 8.30395 6.44797 8.65594C6.91997 9.00795 7.15597 9.45995 7.15597 10.0119C7.15597 10.4999 7.03597 10.8999 6.79597 11.2119C6.56397 11.5239 6.27197 11.7439 5.91997 11.8719V11.8839C6.40797 11.9879 6.78797 12.1919 7.05997 12.4959C7.33997 12.7999 7.47997 13.1799 7.47997 13.6359C7.47997 14.3799 7.22397 14.9599 6.71197 15.3759C6.20797 15.7919 5.45197 15.9999 4.44397 15.9999ZM4.14397 9.36395H3.53197V11.4159H4.08397C4.55597 11.4159 4.91197 11.3319 5.15197 11.1639C5.39197 10.9879 5.51197 10.7079 5.51197 10.3239C5.51197 10.0039 5.40797 9.76395 5.19997 9.60394C4.99997 9.44394 4.64797 9.36395 4.14397 9.36395ZM4.03597 12.5679H3.53197V14.7639H4.38397C4.83997 14.7639 5.19197 14.6679 5.43997 14.4759C5.69597 14.2839 5.82397 14.0039 5.82397 13.6359C5.82397 13.2999 5.68797 13.0399 5.41597 12.8559C5.14397 12.6639 4.68397 12.5679 4.03597 12.5679Z" fill="#2B2B2B"/>
<path d="M8.57178 15.9519V14.6079C8.96378 14.6799 9.31578 14.7319 9.62778 14.7639C9.93978 14.7879 10.2678 14.7999 10.6118 14.7999C11.1478 14.7999 11.5558 14.7039 11.8358 14.5119C12.1158 14.3119 12.2558 14.0879 12.2558 13.8399C12.2558 13.6079 12.1798 13.4119 12.0278 13.2519C11.8758 13.0919 11.5598 12.9279 11.0798 12.7599L10.0958 12.4239C9.63178 12.2719 9.27578 12.0279 9.02778 11.6919C8.78778 11.3479 8.66778 10.9239 8.66778 10.4199C8.66778 9.73195 8.93978 9.16395 9.48378 8.71595C10.0278 8.26795 10.7958 8.04395 11.7878 8.04395C12.0758 8.04395 12.3598 8.05595 12.6398 8.07995C12.9198 8.10395 13.1958 8.14395 13.4678 8.19995L13.3718 9.49594C13.0758 9.43995 12.7998 9.39995 12.5438 9.37595C12.2878 9.35195 12.0078 9.33995 11.7038 9.33995C11.1758 9.33995 10.7918 9.42795 10.5518 9.60394C10.3118 9.77194 10.1918 9.98795 10.1918 10.2519C10.1918 10.4759 10.2638 10.6639 10.4078 10.8159C10.5598 10.9679 10.8118 11.0999 11.1638 11.2119L12.1358 11.5119C12.7198 11.6959 13.1438 11.9559 13.4078 12.2919C13.6718 12.6199 13.8038 13.0359 13.8038 13.5399C13.8038 14.2839 13.5158 14.8959 12.9398 15.3759C12.3638 15.8479 11.5718 16.0839 10.5638 16.0839C10.2038 16.0839 9.86778 16.0759 9.55578 16.0599C9.25178 16.0439 8.92378 16.0079 8.57178 15.9519Z" fill="#2B2B2B"/>
<path d="M19.0273 15.9999L16.8073 9.63995H16.7353V15.9999H15.3553V8.12795H17.7313L19.9633 14.4879H20.0353V8.12795H21.4153V15.9999H19.0273Z" fill="#2B2B2B"/>
</svg>
