<svg width="24" height="24" viewBox="0 0 24 24" fill="none" xmlns="http://www.w3.org/2000/svg">
<path fill-rule="evenodd" clip-rule="evenodd" d="M16.3358 19.1343H4.86716V7.67164H10.6015V4.80597H3.05129C2.47786 4.80597 2 5.28358 2 5.85672V20.9493C2 21.5224 2.47786 22 3.05129 22H18.1517C18.7251 22 19.203 21.5224 19.203 20.9493V13.403H16.3358V19.1343ZM21.6879 2.32239C21.4011 2.03582 21.1144 1.9403 20.7321 2.03582L12.7041 2.89552C12.1306 2.99104 11.6528 3.46866 11.6528 4.04179C11.6528 4.61493 12.1306 5.09254 12.7041 5.18806L16.2403 5.47463L11.7484 9.96418C10.9838 10.7284 11.3661 11.4925 11.9395 12.0657C12.5129 12.6388 13.2775 13.0209 14.0421 12.2567L18.534 7.76716L18.8207 11.3015C18.9163 11.8746 19.3941 12.3522 19.9676 12.3522C20.541 12.3522 21.0189 11.8746 21.1144 11.3015L21.9746 3.27761C22.0702 2.89552 21.879 2.60896 21.6879 2.32239Z" fill="#8F8E8B"/>
</svg>
