<svg width="24" height="24" viewBox="0 0 24 24" fill="none" xmlns="http://www.w3.org/2000/svg">
<path fill-rule="evenodd" clip-rule="evenodd" d="M18.578 14.1427C18.6912 14.9538 18.9859 15.7289 19.4402 16.4103L20.8506 18.554C21.2271 19.1187 20.8223 19.875 20.1436 19.875H14.5952C14.4128 21.1466 13.3221 22.125 12 22.125C10.9271 22.125 10.0067 21.4806 9.60033 20.5581L9.83623 20.5297C11.5431 20.3244 13.1256 20.134 13.2288 20.116C13.446 20.0781 13.3941 19.875 13.3941 19.875H3.85634C3.1777 19.875 2.77293 19.1187 3.14939 18.554L4.5598 16.4103C5.01408 15.7289 5.30879 14.9538 5.422 14.1427L6.4693 6.64035C6.9562 4.5711 8.53987 2.99284 10.5168 2.45824C10.6008 1.70933 11.2287 1.125 12 1.125C12.7713 1.125 13.3992 1.70933 13.4832 2.45824C15.4601 2.99284 17.0438 4.57114 17.5307 6.64035L18.578 14.1427ZM1.20405 8.46272L3.35254 8.98247C3.66067 9.05699 3.9756 8.88794 4.08371 8.58989L4.08757 8.57931C4.19569 8.2813 4.06241 7.94965 3.77816 7.80925L1.79614 6.83061C1.49554 6.68219 1.13269 6.82799 1.01835 7.14314L0.80756 7.72416C0.69326 8.03931 0.87821 8.3839 1.20405 8.46272ZM19.9398 8.58987C20.0479 8.88789 20.3629 9.05697 20.671 8.98246L22.8195 8.46271C23.1453 8.38392 23.3303 8.03934 23.216 7.72418L23.0052 7.14316C22.8909 6.82801 22.528 6.68221 22.2274 6.83063L20.2454 7.80927C19.9611 7.94964 19.8279 8.28132 19.936 8.57934L19.9398 8.58987ZM20.6711 11.6648L22.8195 12.1845C23.1454 12.2634 23.3304 12.608 23.2161 12.9231L23.0053 13.5041C22.8909 13.8193 22.5281 13.9651 22.2275 13.8167L20.2455 12.838C19.9612 12.6976 19.8279 12.366 19.9361 12.068L19.9399 12.0574C20.048 11.7594 20.3629 11.5903 20.6711 11.6648ZM4.08759 12.068L4.08372 12.0574C3.97561 11.7594 3.66069 11.5903 3.35255 11.6648L1.20406 12.1845C0.878224 12.2633 0.693237 12.6079 0.807574 12.9231L1.01836 13.5041C1.1327 13.8193 1.49555 13.9651 1.79615 13.8167L3.77814 12.838C4.06239 12.6977 4.19566 12.366 4.08759 12.068Z" fill="#8F8E8B"/>
</svg>
