<svg width="24" height="24" viewBox="0 0 24 24" fill="none" xmlns="http://www.w3.org/2000/svg">
<path fill-rule="evenodd" clip-rule="evenodd" d="M18.578 14.1427C18.6913 14.9538 18.986 15.7289 19.4402 16.4103L20.8507 18.554C21.2271 19.1187 20.8223 19.875 20.1437 19.875H14.5952C14.4128 21.1466 13.3221 22.125 12.0001 22.125C10.9271 22.125 10.0067 21.4806 9.60039 20.5581L9.83629 20.5297C11.5432 20.3244 13.1256 20.134 13.2288 20.116C13.446 20.0781 13.3942 19.875 13.3942 19.875H3.8564C3.17776 19.875 2.77299 19.1187 3.14945 18.554L4.55986 16.4103C5.01414 15.7289 5.30885 14.9538 5.42206 14.1427L6.46936 6.64035C6.95626 4.5711 8.53993 2.99284 10.5169 2.45824C10.6008 1.70933 11.2288 1.125 12.0001 1.125C12.7714 1.125 13.3993 1.70933 13.4833 2.45824C15.4602 2.99284 17.0438 4.57114 17.5307 6.64035L18.578 14.1427ZM1.20411 8.46272L3.3526 8.98247C3.66073 9.05699 3.97566 8.88794 4.08377 8.58989L4.08763 8.57931C4.19575 8.2813 4.06247 7.94965 3.77822 7.80925L1.7962 6.83061C1.4956 6.68219 1.13275 6.82799 1.01841 7.14314L0.807621 7.72416C0.693321 8.03931 0.878271 8.3839 1.20411 8.46272ZM19.9399 8.58987C20.048 8.88789 20.3629 9.05697 20.6711 8.98246L22.8195 8.46271C23.1454 8.38392 23.3303 8.03934 23.216 7.72418L23.0053 7.14316C22.8909 6.82801 22.528 6.68221 22.2274 6.83063L20.2454 7.80927C19.9612 7.94964 19.8279 8.28132 19.936 8.57934L19.9399 8.58987ZM20.6711 11.6648L22.8196 12.1845C23.1454 12.2634 23.3304 12.608 23.2161 12.9231L23.0053 13.5041C22.891 13.8193 22.5281 13.9651 22.2275 13.8167L20.2455 12.838C19.9613 12.6976 19.828 12.366 19.9361 12.068L19.9399 12.0574C20.0481 11.7594 20.363 11.5903 20.6711 11.6648ZM4.08765 12.068L4.08379 12.0574C3.97567 11.7594 3.66075 11.5903 3.35261 11.6648L1.20412 12.1845C0.878285 12.2633 0.693298 12.6079 0.807635 12.9231L1.01842 13.5041C1.13276 13.8193 1.49561 13.9651 1.79621 13.8167L3.7782 12.838C4.06245 12.6977 4.19572 12.366 4.08765 12.068Z" fill="#154273"/>
</svg>
