<svg width="40" height="40" viewBox="0 0 40 40" fill="none" xmlns="http://www.w3.org/2000/svg">
<circle cx="20" cy="20" r="20" fill="#EBEBEB"/>
<path d="M27.903 16.586C27.8556 16.4775 27.7892 16.3783 27.707 16.293L21.707 10.293C21.6217 10.2108 21.5225 10.1444 21.414 10.097C21.384 10.083 21.352 10.075 21.32 10.064C21.2363 10.0355 21.1492 10.0184 21.061 10.013C21.04 10.011 21.021 10 21 10H14C12.897 10 12 10.897 12 12V28C12 29.103 12.897 30 14 30H26C27.103 30 28 29.103 28 28V17C28 16.979 27.989 16.96 27.987 16.938C27.9821 16.8497 27.9649 16.7625 27.936 16.679C27.926 16.647 27.917 16.616 27.903 16.586ZM24.586 16H22V13.414L24.586 16ZM14 28V12H20V17C20 17.2652 20.1054 17.5196 20.2929 17.7071C20.4804 17.8946 20.7348 18 21 18H26L26.002 28H14Z" fill="#2B2B2B"/>
<path d="M16 20H24V22H16V20ZM16 24H24V26H16V24ZM16 16H18V18H16V16Z" fill="#2B2B2B"/>
</svg>
