<svg width="24" height="24" viewBox="0 0 24 24" fill="none" xmlns="http://www.w3.org/2000/svg">
<path fill-rule="evenodd" clip-rule="evenodd" d="M20.4216 17.6193L15.8854 13.0841C16.4042 12.1198 16.7 11.0185 16.7 9.849C16.7 6.0724 13.6269 3 9.8495 3C6.0727 3 3 6.0724 3 9.849C3 13.6266 6.0727 16.7 9.8495 16.7C11.0039 16.7 12.0908 16.4102 13.046 15.9038L17.5915 20.4492C18.3025 21.1602 19.4607 21.1602 20.1716 20.4492L20.4216 20.1992C21.1345 19.4864 21.1325 18.3321 20.4216 17.6193ZM5.7 9.849C5.7 7.5582 7.5587 5.7 9.8495 5.7C12.1413 5.7 14 7.5582 14 9.849C14 12.1418 12.1413 14 9.8495 14C7.5587 14 5.7 12.1418 5.7 9.849Z" fill="#8F8E8B"/>
</svg>
