<svg width="30" height="30" viewBox="0 0 30 30" fill="none" xmlns="http://www.w3.org/2000/svg">
  <circle cx="15" cy="15" r="15" fill="#EBEBEB"/>
  <path
    d="M10.125 17.25C10.8075 17.25 11.4247 16.9815 11.8927 16.5525L16.5877 19.2352C16.5322 19.444 16.5027 19.6589 16.5 19.875C16.5 21.3225 17.6775 22.5 19.125 22.5C20.5725 22.5 21.75 21.3225 21.75 19.875C21.75 18.4275 20.5725 17.25 19.125 17.25C18.4425 17.25 17.8252 17.5185 17.3573 17.9475L12.6623 15.2647C12.7095 15.0795 12.7395 14.8882 12.7432 14.6888L17.3565 12.0525C17.8253 12.4815 18.4425 12.75 19.125 12.75C20.5725 12.75 21.75 11.5725 21.75 10.125C21.75 8.6775 20.5725 7.5 19.125 7.5C17.6775 7.5 16.5 8.6775 16.5 10.125C16.5 10.347 16.536 10.5585 16.5877 10.7648L12.3247 13.2015C12.0876 12.8335 11.762 12.5307 11.3777 12.3209C10.9935 12.111 10.5628 12.0007 10.125 12C8.6775 12 7.5 13.1775 7.5 14.625C7.5 16.0725 8.6775 17.25 10.125 17.25ZM19.125 18.75C19.7452 18.75 20.25 19.2548 20.25 19.875C20.25 20.4952 19.7452 21 19.125 21C18.5048 21 18 20.4952 18 19.875C18 19.2548 18.5048 18.75 19.125 18.75ZM19.125 9C19.7452 9 20.25 9.50475 20.25 10.125C20.25 10.7452 19.7452 11.25 19.125 11.25C18.5048 11.25 18 10.7452 18 10.125C18 9.50475 18.5048 9 19.125 9ZM10.125 13.5C10.7452 13.5 11.25 14.0047 11.25 14.625C11.25 15.2453 10.7452 15.75 10.125 15.75C9.50475 15.75 9 15.2453 9 14.625C9 14.0047 9.50475 13.5 10.125 13.5Z"
    fill="#2B2B2B"/>
</svg>
