<svg width="40" height="40" viewBox="0 0 40 40" fill="none" xmlns="http://www.w3.org/2000/svg">
<circle cx="20" cy="20" r="20" fill="#EBEBEB"/>
<path d="M27.148 15.971C26.9698 15.6755 26.7185 15.431 26.4183 15.2609C26.118 15.0908 25.779 15.0009 25.434 15H23V13C23 12.7348 22.8946 12.4804 22.7071 12.2929C22.5196 12.1054 22.2652 12 22 12H12C10.897 12 10 12.897 10 14V24C10 24.746 10.416 25.391 11.023 25.734C11.146 27.553 12.65 29 14.5 29C16.259 29 17.704 27.691 17.949 26H21.051C21.296 27.691 22.741 29 24.5 29C26.259 29 27.704 27.691 27.949 26H28C29.103 26 30 25.103 30 24V21C30.0002 20.8185 29.9507 20.6404 29.857 20.485L27.148 15.971ZM23 17H25.434L27.234 20H23V17ZM14.5 27C13.673 27 13 26.327 13 25.5C13 24.673 13.673 24 14.5 24C15.327 24 16 24.673 16 25.5C16 26.327 15.327 27 14.5 27ZM24.5 27C23.673 27 23 26.327 23 25.5C23 24.673 23.673 24 24.5 24C25.327 24 26 24.673 26 25.5C26 26.327 25.327 27 24.5 27Z" fill="#2B2B2B"/>
</svg>
